<svg fill="none" height="341" viewBox="0 0 520 341" width="520" xmlns="http://www.w3.org/2000/svg" xmlns:xlink="http://www.w3.org/1999/xlink"><clipPath id="a"><path d="m0 27h520v314h-520z"/></clipPath><circle cx="33" cy="44" fill="#ffc955" r="23"/><path d="m214.942 9.812c0-.42.132-.75.396-.99.264-.252.612-.378 1.044-.378.456 0 .816.126 1.08.378.264.24.396.57.396.99s-.132.756-.396 1.008-.624.378-1.08.378c-.432 0-.78-.126-1.044-.378s-.396-.588-.396-1.008zm10.786 0c0-.42.132-.75.396-.99.264-.252.612-.378 1.044-.378.456 0 .816.126 1.08.378.264.24.396.57.396.99s-.132.756-.396 1.008-.624.378-1.08.378c-.432 0-.78-.126-1.044-.378s-.396-.588-.396-1.008zm10.786 0c0-.42.132-.75.396-.99.264-.252.612-.378 1.044-.378.456 0 .816.126 1.08.378.264.24.396.57.396.99s-.132.756-.396 1.008-.624.378-1.08.378c-.432 0-.78-.126-1.044-.378s-.396-.588-.396-1.008zm10.786 0c0-.42.132-.75.396-.99.264-.252.612-.378 1.044-.378.456 0 .816.126 1.08.378.264.24.396.57.396.99s-.132.756-.396 1.008-.624.378-1.08.378c-.432 0-.78-.126-1.044-.378s-.396-.588-.396-1.008zm10.786 0c0-.42.132-.75.396-.99.264-.252.612-.378 1.044-.378.456 0 .816.126 1.08.378.264.24.396.57.396.99s-.132.756-.396 1.008-.624.378-1.08.378c-.432 0-.78-.126-1.044-.378s-.396-.588-.396-1.008zm10.786 0c0-.42.132-.75.396-.99.264-.252.612-.378 1.044-.378.456 0 .816.126 1.08.378.264.24.396.57.396.99s-.132.756-.396 1.008-.624.378-1.08.378c-.432 0-.78-.126-1.044-.378s-.396-.588-.396-1.008zm10.786 0c0-.42.132-.75.396-.99.264-.252.612-.378 1.044-.378.456 0 .816.126 1.08.378.264.24.396.57.396.99s-.132.756-.396 1.008-.624.378-1.08.378c-.432 0-.78-.126-1.044-.378s-.396-.588-.396-1.008zm10.786 0c0-.42.132-.75.396-.99.264-.252.612-.378 1.044-.378.456 0 .816.126 1.08.378.264.24.396.57.396.99s-.132.756-.396 1.008-.624.378-1.08.378c-.432 0-.78-.126-1.044-.378s-.396-.588-.396-1.008zm10.785 0c0-.42.132-.75.396-.99.264-.252.612-.378 1.044-.378.456 0 .816.126 1.08.378.264.24.396.57.396.99s-.132.756-.396 1.008-.624.378-1.08.378c-.432 0-.78-.126-1.044-.378s-.396-.588-.396-1.008zm-86.287 10c0-.42.132-.75.396-.99.264-.252.612-.378 1.044-.378.456 0 .816.126 1.08.378.264.24.396.57.396.99s-.132.756-.396 1.008-.624.378-1.08.378c-.432 0-.78-.126-1.044-.378s-.396-.588-.396-1.008zm10.786 0c0-.42.132-.75.396-.99.264-.252.612-.378 1.044-.378.456 0 .816.126 1.08.378.264.24.396.57.396.99s-.132.756-.396 1.008-.624.378-1.08.378c-.432 0-.78-.126-1.044-.378s-.396-.588-.396-1.008zm10.786 0c0-.42.132-.75.396-.99.264-.252.612-.378 1.044-.378.456 0 .816.126 1.08.378.264.24.396.57.396.99s-.132.756-.396 1.008-.624.378-1.08.378c-.432 0-.78-.126-1.044-.378s-.396-.588-.396-1.008zm10.786 0c0-.42.132-.75.396-.99.264-.252.612-.378 1.044-.378.456 0 .816.126 1.08.378.264.24.396.57.396.99s-.132.756-.396 1.008-.624.378-1.08.378c-.432 0-.78-.126-1.044-.378s-.396-.588-.396-1.008zm10.786 0c0-.42.132-.75.396-.99.264-.252.612-.378 1.044-.378.456 0 .816.126 1.08.378.264.24.396.57.396.99s-.132.756-.396 1.008-.624.378-1.08.378c-.432 0-.78-.126-1.044-.378s-.396-.588-.396-1.008zm10.786 0c0-.42.132-.75.396-.99.264-.252.612-.378 1.044-.378.456 0 .816.126 1.08.378.264.24.396.57.396.99s-.132.756-.396 1.008-.624.378-1.08.378c-.432 0-.78-.126-1.044-.378s-.396-.588-.396-1.008zm10.786 0c0-.42.132-.75.396-.99.264-.252.612-.378 1.044-.378.456 0 .816.126 1.08.378.264.24.396.57.396.99s-.132.756-.396 1.008-.624.378-1.08.378c-.432 0-.78-.126-1.044-.378s-.396-.588-.396-1.008zm10.786 0c0-.42.132-.75.396-.99.264-.252.612-.378 1.044-.378.456 0 .816.126 1.08.378.264.24.396.57.396.99s-.132.756-.396 1.008-.624.378-1.08.378c-.432 0-.78-.126-1.044-.378s-.396-.588-.396-1.008zm10.785 0c0-.42.132-.75.396-.99.264-.252.612-.378 1.044-.378.456 0 .816.126 1.08.378.264.24.396.57.396.99s-.132.756-.396 1.008-.624.378-1.08.378c-.432 0-.78-.126-1.044-.378s-.396-.588-.396-1.008zm-86.287 10c0-.42.132-.75.396-.99.264-.252.612-.378 1.044-.378.456 0 .816.126 1.08.378.264.24.396.57.396.99s-.132.756-.396 1.008-.624.378-1.08.378c-.432 0-.78-.126-1.044-.378s-.396-.588-.396-1.008zm10.786 0c0-.42.132-.75.396-.99.264-.252.612-.378 1.044-.378.456 0 .816.126 1.08.378.264.24.396.57.396.99s-.132.756-.396 1.008-.624.378-1.08.378c-.432 0-.78-.126-1.044-.378s-.396-.588-.396-1.008zm10.786 0c0-.42.132-.75.396-.99.264-.252.612-.378 1.044-.378.456 0 .816.126 1.08.378.264.24.396.57.396.99s-.132.756-.396 1.008-.624.378-1.08.378c-.432 0-.78-.126-1.044-.378s-.396-.588-.396-1.008zm10.786 0c0-.42.132-.75.396-.99.264-.252.612-.378 1.044-.378.456 0 .816.126 1.08.378.264.24.396.57.396.99s-.132.756-.396 1.008-.624.378-1.08.378c-.432 0-.78-.126-1.044-.378s-.396-.588-.396-1.008zm10.786 0c0-.42.132-.75.396-.99.264-.252.612-.378 1.044-.378.456 0 .816.126 1.08.378.264.24.396.57.396.99s-.132.756-.396 1.008-.624.378-1.08.378c-.432 0-.78-.126-1.044-.378s-.396-.588-.396-1.008zm10.786 0c0-.42.132-.75.396-.99.264-.252.612-.378 1.044-.378.456 0 .816.126 1.08.378.264.24.396.57.396.99s-.132.756-.396 1.008-.624.378-1.08.378c-.432 0-.78-.126-1.044-.378s-.396-.588-.396-1.008zm10.786 0c0-.42.132-.75.396-.99.264-.252.612-.378 1.044-.378.456 0 .816.126 1.08.378.264.24.396.57.396.99s-.132.756-.396 1.008-.624.378-1.08.378c-.432 0-.78-.126-1.044-.378s-.396-.588-.396-1.008zm10.786 0c0-.42.132-.75.396-.99.264-.252.612-.378 1.044-.378.456 0 .816.126 1.08.378.264.24.396.57.396.99s-.132.756-.396 1.008-.624.378-1.08.378c-.432 0-.78-.126-1.044-.378s-.396-.588-.396-1.008zm10.785 0c0-.42.132-.75.396-.99.264-.252.612-.378 1.044-.378.456 0 .816.126 1.08.378.264.24.396.57.396.99s-.132.756-.396 1.008-.624.378-1.08.378c-.432 0-.78-.126-1.044-.378s-.396-.588-.396-1.008zm-86.287 10c0-.42.132-.75.396-.99.264-.252.612-.378 1.044-.378.456 0 .816.126 1.08.378.264.24.396.57.396.99s-.132.756-.396 1.008-.624.378-1.08.378c-.432 0-.78-.126-1.044-.378s-.396-.588-.396-1.008zm10.786 0c0-.42.132-.75.396-.99.264-.252.612-.378 1.044-.378.456 0 .816.126 1.08.378.264.24.396.57.396.99s-.132.756-.396 1.008-.624.378-1.08.378c-.432 0-.78-.126-1.044-.378s-.396-.588-.396-1.008zm10.786 0c0-.42.132-.75.396-.99.264-.252.612-.378 1.044-.378.456 0 .816.126 1.08.378.264.24.396.57.396.99s-.132.756-.396 1.008-.624.378-1.08.378c-.432 0-.78-.126-1.044-.378s-.396-.588-.396-1.008zm10.786 0c0-.42.132-.75.396-.99.264-.252.612-.378 1.044-.378.456 0 .816.126 1.08.378.264.24.396.57.396.99s-.132.756-.396 1.008-.624.378-1.08.378c-.432 0-.78-.126-1.044-.378s-.396-.588-.396-1.008zm10.786 0c0-.42.132-.75.396-.99.264-.252.612-.378 1.044-.378.456 0 .816.126 1.08.378.264.24.396.57.396.99s-.132.756-.396 1.008-.624.378-1.08.378c-.432 0-.78-.126-1.044-.378s-.396-.588-.396-1.008zm10.786 0c0-.42.132-.75.396-.99.264-.252.612-.378 1.044-.378.456 0 .816.126 1.08.378.264.24.396.57.396.99s-.132.756-.396 1.008-.624.378-1.08.378c-.432 0-.78-.126-1.044-.378s-.396-.588-.396-1.008zm10.786 0c0-.42.132-.75.396-.99.264-.252.612-.378 1.044-.378.456 0 .816.126 1.08.378.264.24.396.57.396.99s-.132.756-.396 1.008-.624.378-1.08.378c-.432 0-.78-.126-1.044-.378s-.396-.588-.396-1.008zm10.786 0c0-.42.132-.75.396-.99.264-.252.612-.378 1.044-.378.456 0 .816.126 1.08.378.264.24.396.57.396.99s-.132.756-.396 1.008-.624.378-1.08.378c-.432 0-.78-.126-1.044-.378s-.396-.588-.396-1.008zm10.785 0c0-.42.132-.75.396-.99.264-.252.612-.378 1.044-.378.456 0 .816.126 1.08.378.264.24.396.57.396.99s-.132.756-.396 1.008-.624.378-1.08.378c-.432 0-.78-.126-1.044-.378s-.396-.588-.396-1.008zm-86.287 10c0-.42.132-.75.396-.99.264-.252.612-.378 1.044-.378.456 0 .816.126 1.08.378.264.24.396.57.396.99s-.132.756-.396 1.008-.624.378-1.08.378c-.432 0-.78-.126-1.044-.378s-.396-.588-.396-1.008zm10.786 0c0-.42.132-.75.396-.99.264-.252.612-.378 1.044-.378.456 0 .816.126 1.08.378.264.24.396.57.396.99s-.132.756-.396 1.008-.624.378-1.08.378c-.432 0-.78-.126-1.044-.378s-.396-.588-.396-1.008zm10.786 0c0-.42.132-.75.396-.99.264-.252.612-.378 1.044-.378.456 0 .816.126 1.08.378.264.24.396.57.396.99s-.132.756-.396 1.008-.624.378-1.08.378c-.432 0-.78-.126-1.044-.378s-.396-.588-.396-1.008zm10.786 0c0-.42.132-.75.396-.99.264-.252.612-.378 1.044-.378.456 0 .816.126 1.08.378.264.24.396.57.396.99s-.132.756-.396 1.008-.624.378-1.08.378c-.432 0-.78-.126-1.044-.378s-.396-.588-.396-1.008zm10.786 0c0-.42.132-.75.396-.99.264-.252.612-.378 1.044-.378.456 0 .816.126 1.08.378.264.24.396.57.396.99s-.132.756-.396 1.008-.624.378-1.08.378c-.432 0-.78-.126-1.044-.378s-.396-.588-.396-1.008zm10.786 0c0-.42.132-.75.396-.99.264-.252.612-.378 1.044-.378.456 0 .816.126 1.08.378.264.24.396.57.396.99s-.132.756-.396 1.008-.624.378-1.08.378c-.432 0-.78-.126-1.044-.378s-.396-.588-.396-1.008zm10.786 0c0-.42.132-.75.396-.99.264-.252.612-.378 1.044-.378.456 0 .816.126 1.08.378.264.24.396.57.396.99s-.132.756-.396 1.008-.624.378-1.08.378c-.432 0-.78-.126-1.044-.378s-.396-.588-.396-1.008zm10.786 0c0-.42.132-.75.396-.99.264-.252.612-.378 1.044-.378.456 0 .816.126 1.08.378.264.24.396.57.396.99s-.132.756-.396 1.008-.624.378-1.08.378c-.432 0-.78-.126-1.044-.378s-.396-.588-.396-1.008zm10.785 0c0-.42.132-.75.396-.99.264-.252.612-.378 1.044-.378.456 0 .816.126 1.08.378.264.24.396.57.396.99s-.132.756-.396 1.008-.624.378-1.08.378c-.432 0-.78-.126-1.044-.378s-.396-.588-.396-1.008zm-86.287 10c0-.42.132-.75.396-.99.264-.252.612-.378 1.044-.378.456 0 .816.126 1.08.378.264.24.396.57.396.99s-.132.756-.396 1.008-.624.378-1.08.378c-.432 0-.78-.126-1.044-.378s-.396-.588-.396-1.008zm10.786 0c0-.42.132-.75.396-.99.264-.252.612-.378 1.044-.378.456 0 .816.126 1.08.378.264.24.396.57.396.99s-.132.756-.396 1.008-.624.378-1.08.378c-.432 0-.78-.126-1.044-.378s-.396-.588-.396-1.008zm10.786 0c0-.42.132-.75.396-.99.264-.252.612-.378 1.044-.378.456 0 .816.126 1.08.378.264.24.396.57.396.99s-.132.756-.396 1.008-.624.378-1.08.378c-.432 0-.78-.126-1.044-.378s-.396-.588-.396-1.008zm10.786 0c0-.42.132-.75.396-.99.264-.252.612-.378 1.044-.378.456 0 .816.126 1.08.378.264.24.396.57.396.99s-.132.756-.396 1.008-.624.378-1.08.378c-.432 0-.78-.126-1.044-.378s-.396-.588-.396-1.008zm10.786 0c0-.42.132-.75.396-.99.264-.252.612-.378 1.044-.378.456 0 .816.126 1.08.378.264.24.396.57.396.99s-.132.756-.396 1.008-.624.378-1.08.378c-.432 0-.78-.126-1.044-.378s-.396-.588-.396-1.008zm10.786 0c0-.42.132-.75.396-.99.264-.252.612-.378 1.044-.378.456 0 .816.126 1.08.378.264.24.396.57.396.99s-.132.756-.396 1.008-.624.378-1.08.378c-.432 0-.78-.126-1.044-.378s-.396-.588-.396-1.008zm10.786 0c0-.42.132-.75.396-.99.264-.252.612-.378 1.044-.378.456 0 .816.126 1.08.378.264.24.396.57.396.99s-.132.756-.396 1.008-.624.378-1.08.378c-.432 0-.78-.126-1.044-.378s-.396-.588-.396-1.008zm10.786 0c0-.42.132-.75.396-.99.264-.252.612-.378 1.044-.378.456 0 .816.126 1.08.378.264.24.396.57.396.99s-.132.756-.396 1.008-.624.378-1.08.378c-.432 0-.78-.126-1.044-.378s-.396-.588-.396-1.008zm10.785 0c0-.42.132-.75.396-.99.264-.252.612-.378 1.044-.378.456 0 .816.126 1.08.378.264.24.396.57.396.99s-.132.756-.396 1.008-.624.378-1.08.378c-.432 0-.78-.126-1.044-.378s-.396-.588-.396-1.008zm-86.287 10c0-.42.132-.75.396-.99.264-.252.612-.378 1.044-.378.456 0 .816.126 1.08.378.264.24.396.57.396.99s-.132.756-.396 1.008-.624.378-1.08.378c-.432 0-.78-.126-1.044-.378s-.396-.588-.396-1.008zm10.786 0c0-.42.132-.75.396-.99.264-.252.612-.378 1.044-.378.456 0 .816.126 1.08.378.264.24.396.57.396.99s-.132.756-.396 1.008-.624.378-1.08.378c-.432 0-.78-.126-1.044-.378s-.396-.588-.396-1.008zm10.786 0c0-.42.132-.75.396-.99.264-.252.612-.378 1.044-.378.456 0 .816.126 1.08.378.264.24.396.57.396.99s-.132.756-.396 1.008-.624.378-1.08.378c-.432 0-.78-.126-1.044-.378s-.396-.588-.396-1.008zm10.786 0c0-.42.132-.75.396-.99.264-.252.612-.378 1.044-.378.456 0 .816.126 1.08.378.264.24.396.57.396.99s-.132.756-.396 1.008-.624.378-1.08.378c-.432 0-.78-.126-1.044-.378s-.396-.588-.396-1.008zm10.786 0c0-.42.132-.75.396-.99.264-.252.612-.378 1.044-.378.456 0 .816.126 1.08.378.264.24.396.57.396.99s-.132.756-.396 1.008-.624.378-1.08.378c-.432 0-.78-.126-1.044-.378s-.396-.588-.396-1.008zm10.786 0c0-.42.132-.75.396-.99.264-.252.612-.378 1.044-.378.456 0 .816.126 1.08.378.264.24.396.57.396.99s-.132.756-.396 1.008-.624.378-1.08.378c-.432 0-.78-.126-1.044-.378s-.396-.588-.396-1.008zm10.786 0c0-.42.132-.75.396-.99.264-.252.612-.378 1.044-.378.456 0 .816.126 1.08.378.264.24.396.57.396.99s-.132.756-.396 1.008-.624.378-1.08.378c-.432 0-.78-.126-1.044-.378s-.396-.588-.396-1.008zm10.786 0c0-.42.132-.75.396-.99.264-.252.612-.378 1.044-.378.456 0 .816.126 1.08.378.264.24.396.57.396.99s-.132.756-.396 1.008-.624.378-1.08.378c-.432 0-.78-.126-1.044-.378s-.396-.588-.396-1.008zm10.785 0c0-.42.132-.75.396-.99.264-.252.612-.378 1.044-.378.456 0 .816.126 1.08.378.264.24.396.57.396.99s-.132.756-.396 1.008-.624.378-1.08.378c-.432 0-.78-.126-1.044-.378s-.396-.588-.396-1.008zm-86.287 10c0-.42.132-.75.396-.99.264-.252.612-.378 1.044-.378.456 0 .816.126 1.08.378.264.24.396.57.396.99s-.132.756-.396 1.008-.624.378-1.08.378c-.432 0-.78-.126-1.044-.378s-.396-.588-.396-1.008zm10.786 0c0-.42.132-.75.396-.99.264-.252.612-.378 1.044-.378.456 0 .816.126 1.08.378.264.24.396.57.396.99s-.132.756-.396 1.008-.624.378-1.08.378c-.432 0-.78-.126-1.044-.378s-.396-.588-.396-1.008zm10.786 0c0-.42.132-.75.396-.99.264-.252.612-.378 1.044-.378.456 0 .816.126 1.08.378.264.24.396.57.396.99s-.132.756-.396 1.008-.624.378-1.08.378c-.432 0-.78-.126-1.044-.378s-.396-.588-.396-1.008zm10.786 0c0-.42.132-.75.396-.99.264-.252.612-.378 1.044-.378.456 0 .816.126 1.08.378.264.24.396.57.396.99s-.132.756-.396 1.008-.624.378-1.08.378c-.432 0-.78-.126-1.044-.378s-.396-.588-.396-1.008zm10.786 0c0-.42.132-.75.396-.99.264-.252.612-.378 1.044-.378.456 0 .816.126 1.08.378.264.24.396.57.396.99s-.132.756-.396 1.008-.624.378-1.08.378c-.432 0-.78-.126-1.044-.378s-.396-.588-.396-1.008zm10.786 0c0-.42.132-.75.396-.99.264-.252.612-.378 1.044-.378.456 0 .816.126 1.08.378.264.24.396.57.396.99s-.132.756-.396 1.008-.624.378-1.08.378c-.432 0-.78-.126-1.044-.378s-.396-.588-.396-1.008zm10.786 0c0-.42.132-.75.396-.99.264-.252.612-.378 1.044-.378.456 0 .816.126 1.08.378.264.24.396.57.396.99s-.132.756-.396 1.008-.624.378-1.08.378c-.432 0-.78-.126-1.044-.378s-.396-.588-.396-1.008zm10.786 0c0-.42.132-.75.396-.99.264-.252.612-.378 1.044-.378.456 0 .816.126 1.08.378.264.24.396.57.396.99s-.132.756-.396 1.008-.624.378-1.08.378c-.432 0-.78-.126-1.044-.378s-.396-.588-.396-1.008zm10.785 0c0-.42.132-.75.396-.99.264-.252.612-.378 1.044-.378.456 0 .816.126 1.08.378.264.24.396.57.396.99s-.132.756-.396 1.008-.624.378-1.08.378c-.432 0-.78-.126-1.044-.378s-.396-.588-.396-1.008zm-86.287 10c0-.42.132-.75.396-.99.264-.252.612-.378 1.044-.378.456 0 .816.126 1.08.378.264.24.396.57.396.99s-.132.756-.396 1.008-.624.378-1.08.378c-.432 0-.78-.126-1.044-.378s-.396-.588-.396-1.008zm10.786 0c0-.42.132-.75.396-.99.264-.252.612-.378 1.044-.378.456 0 .816.126 1.08.378.264.24.396.57.396.99s-.132.756-.396 1.008-.624.378-1.08.378c-.432 0-.78-.126-1.044-.378s-.396-.588-.396-1.008zm10.786 0c0-.42.132-.75.396-.99.264-.252.612-.378 1.044-.378.456 0 .816.126 1.08.378.264.24.396.57.396.99s-.132.756-.396 1.008-.624.378-1.08.378c-.432 0-.78-.126-1.044-.378s-.396-.588-.396-1.008zm10.786 0c0-.42.132-.75.396-.99.264-.252.612-.378 1.044-.378.456 0 .816.126 1.08.378.264.24.396.57.396.99s-.132.756-.396 1.008-.624.378-1.08.378c-.432 0-.78-.126-1.044-.378s-.396-.588-.396-1.008zm10.786 0c0-.42.132-.75.396-.99.264-.252.612-.378 1.044-.378.456 0 .816.126 1.08.378.264.24.396.57.396.99s-.132.756-.396 1.008-.624.378-1.08.378c-.432 0-.78-.126-1.044-.378s-.396-.588-.396-1.008zm10.786 0c0-.42.132-.75.396-.99.264-.252.612-.378 1.044-.378.456 0 .816.126 1.08.378.264.24.396.57.396.99s-.132.756-.396 1.008-.624.378-1.08.378c-.432 0-.78-.126-1.044-.378s-.396-.588-.396-1.008zm10.786 0c0-.42.132-.75.396-.99.264-.252.612-.378 1.044-.378.456 0 .816.126 1.08.378.264.24.396.57.396.99s-.132.756-.396 1.008-.624.378-1.08.378c-.432 0-.78-.126-1.044-.378s-.396-.588-.396-1.008zm10.786 0c0-.42.132-.75.396-.99.264-.252.612-.378 1.044-.378.456 0 .816.126 1.08.378.264.24.396.57.396.99s-.132.756-.396 1.008-.624.378-1.08.378c-.432 0-.78-.126-1.044-.378s-.396-.588-.396-1.008zm10.785 0c0-.42.132-.75.396-.99.264-.252.612-.378 1.044-.378.456 0 .816.126 1.08.378.264.24.396.57.396.99s-.132.756-.396 1.008-.624.378-1.08.378c-.432 0-.78-.126-1.044-.378s-.396-.588-.396-1.008z" fill="#67d5d2"/><g clip-path="url(#a)"><path d="m514.515 319.858c-2.01 4.951-4.483 9.701-7.384 14.188-1.362 2.14-2.856 4.193-4.473 6.148l-.049.059h-500.08849l.08999-.063c.44999-.351 3.09139-2.489 7.19973-6.149 2.94737-2.628 6.64627-6.04 10.79957-10.145 33.9692-33.421 99.2212-112.527 44.8768-184.995-50.5196-67.3673 3.8743-79.5967 39.7564-81.019 13.787-.5354 27.54 1.7134 40.44 6.6121 16.572 6.3015 46.87 15.9653 86.342 20.3899 1.296.147 2.604.288 3.924.4231 20.898 2.1267 41.937 2.5076 62.899 1.1387.616-.0315 1.237-.0765 1.863-.1215 20.736-1.4603 41.314-4.6461 61.521-9.5243 1.31-.3196 2.601-.6211 3.888-.9002 67.331-15.5828 129.402 37.5252 113.886 97.5472-5.742 22.195-4.284 45.862 14.85 65 31.296 31.256 27.484 62.025 19.659 81.411z" fill="#6c63ff" opacity=".1"/><path d="m408.148 151.691c1.704-3.049 1.198-6.575-1.129-7.877-2.328-1.302-5.596.114-7.3 3.163-1.704 3.048-1.198 6.575 1.129 7.877 2.328 1.301 5.596-.115 7.3-3.163z" fill="#3f3d56"/><path d="m411.916 144.944c1.704-3.049 1.199-6.575-1.129-7.877-2.327-1.302-5.595.114-7.299 3.163-1.704 3.048-1.199 6.575 1.129 7.877 2.327 1.301 5.595-.115 7.299-3.163z" fill="#3f3d56"/><path d="m415.689 138.199c1.704-3.049 1.198-6.575-1.129-7.877-2.328-1.301-5.596.115-7.3 3.163-1.704 3.049-1.198 6.575 1.129 7.877 2.328 1.302 5.596-.114 7.3-3.163z" fill="#3f3d56"/><path d="m419.458 131.448c1.704-3.049 1.199-6.576-1.129-7.877-2.327-1.302-5.595.114-7.299 3.163-1.704 3.048-1.199 6.575 1.129 7.876 2.327 1.302 5.595-.114 7.299-3.162z" fill="#3f3d56"/><path d="m423.225 124.705c1.704-3.049 1.198-6.576-1.129-7.877-2.328-1.302-5.596.114-7.3 3.163-1.704 3.048-1.198 6.575 1.129 7.876 2.328 1.302 5.596-.114 7.3-3.162z" fill="#3f3d56"/><path d="m426.998 117.958c1.704-3.049 1.199-6.576-1.129-7.877-2.327-1.302-5.595.114-7.299 3.163-1.704 3.048-1.199 6.575 1.129 7.876 2.327 1.302 5.595-.114 7.299-3.162z" fill="#3f3d56"/><path d="m430.771 111.213c1.704-3.049 1.198-6.575-1.129-7.877-2.328-1.302-5.596.114-7.3 3.163-1.704 3.048-1.198 6.575 1.129 7.877 2.328 1.301 5.596-.115 7.3-3.163z" fill="#3f3d56"/><path d="m468.117 71.5022c.985-.4117 1.941-.8899 2.861-1.4313l-10.057-8.0164 11.92 6.7876c2.547-1.8585 4.687-4.2169 6.291-6.931s2.637-5.727 3.038-8.8543l-20.731-.6482 20.911-2.6061c-.025-3.1908-.709-6.3421-2.009-9.2558-1.301-2.9137-3.19-5.5269-5.548-7.6754-2.359-2.1484-5.136-3.7858-8.158-4.8091-3.021-1.0233-6.222-1.4104-9.4-1.1371s-6.266 1.2011-9.068 2.7253c-2.803 1.5241-5.26 3.6116-7.217 6.1312-1.958 2.5196-3.373 5.4169-4.157 8.5099s-.92 6.3148-.4 9.463c-1.535.6399-2.997 1.4426-4.36 2.3945l10.21 15.5108-12.451-13.7193c-2.857 2.58-5.025 5.832-6.308 9.4615s-1.641 7.5218-1.041 11.3245c-4.006 1.6697-7.462 4.4333-9.972 7.9749s-3.974 7.7182-4.223 12.0524.726 8.6512 2.814 12.4572c2.087 3.806 5.203 6.948 8.992 9.066 3.788 2.118 8.096 3.128 12.431 2.913 4.335-.216 8.522-1.646 12.082-4.129s6.35-5.918 8.051-9.912 2.244-8.387 1.567-12.6748c4.788-1.9946 8.767-5.5413 11.297-10.0704 2.53-4.529 3.464-9.7773 2.653-14.9016z" fill="#885df1"/><path d="m425.08 63.8233c-2.529 4.53-3.458 9.7802-2.637 14.9031-4.006 1.6698-7.462 4.4334-9.972 7.9749-2.51 3.5416-3.974 7.7182-4.223 12.0524-.249 4.3343.726 8.6513 2.814 12.4573 2.087 3.806 5.203 6.948 8.992 9.066 3.788 2.118 8.096 3.128 12.431 2.913 4.335-.216 8.522-1.646 12.082-4.129s6.35-5.918 8.051-9.912 2.244-8.387 1.567-12.6748c4.603-1.922-27.836-34.9014-29.105-32.6509z" fill="#000" opacity=".1"/><path d="m455.108 311.365h5.449c2.984 0 5.845 1.185 7.955 3.296 2.11 2.11 3.295 4.972 3.295 7.957v16.703h-27.949v-16.703c0-2.985 1.186-5.847 3.295-7.957 2.11-2.111 4.971-3.296 7.955-3.296z" fill="#3f3d56"/><path d="m455.108 311.365h5.449c2.984 0 5.845 1.185 7.955 3.296 2.11 2.11 3.295 4.972 3.295 7.957v16.703h-27.949v-16.703c0-2.985 1.186-5.847 3.295-7.957 2.11-2.111 4.971-3.296 7.955-3.296z" fill="#000" opacity=".1"/><g fill="#3f3d56"><path d="m456.719 317.518c1.235 0 2.236-1.002 2.236-2.237 0-1.236-1.001-2.237-2.236-2.237s-2.237 1.001-2.237 2.237c0 1.235 1.002 2.237 2.237 2.237z"/><path d="m456.719 314.723c1.235 0 2.236-1.002 2.236-2.237 0-1.236-1.001-2.237-2.236-2.237s-2.237 1.001-2.237 2.237c0 1.235 1.002 2.237 2.237 2.237z"/><path d="m456.719 311.923c1.235 0 2.236-1.002 2.236-2.237s-1.001-2.237-2.236-2.237-2.237 1.002-2.237 2.237 1.002 2.237 2.237 2.237z"/><path d="m456.719 309.128c1.235 0 2.236-1.002 2.236-2.237 0-1.236-1.001-2.237-2.236-2.237s-2.237 1.001-2.237 2.237c0 1.235 1.002 2.237 2.237 2.237z"/><path d="m456.719 306.333c1.235 0 2.236-1.002 2.236-2.237 0-1.236-1.001-2.237-2.236-2.237s-2.237 1.001-2.237 2.237c0 1.235 1.002 2.237 2.237 2.237z"/><path d="m456.719 303.538c1.235 0 2.236-1.002 2.236-2.238 0-1.235-1.001-2.237-2.236-2.237s-2.237 1.002-2.237 2.237c0 1.236 1.002 2.238 2.237 2.238z"/><path d="m456.719 300.742c1.235 0 2.236-1.001 2.236-2.237 0-1.235-1.001-2.237-2.236-2.237s-2.237 1.002-2.237 2.237c0 1.236 1.002 2.237 2.237 2.237z"/><path d="m460.071 301.859c1.236 0 2.237-1.002 2.237-2.237 0-1.236-1.001-2.237-2.237-2.237-1.235 0-2.236 1.001-2.236 2.237 0 1.235 1.001 2.237 2.236 2.237z"/><path d="m462.308 300.742c1.235 0 2.236-1.001 2.236-2.237 0-1.235-1.001-2.237-2.236-2.237s-2.237 1.002-2.237 2.237c0 1.236 1.002 2.237 2.237 2.237z"/><path d="m464.544 299.622c1.235 0 2.236-1.002 2.236-2.237 0-1.236-1.001-2.238-2.236-2.238s-2.236 1.002-2.236 2.238c0 1.235 1.001 2.237 2.236 2.237z"/><path d="m456.719 297.947c1.235 0 2.236-1.001 2.236-2.237 0-1.235-1.001-2.237-2.236-2.237s-2.237 1.002-2.237 2.237c0 1.236 1.002 2.237 2.237 2.237z"/><path d="m456.719 295.152c1.235 0 2.236-1.002 2.236-2.237 0-1.236-1.001-2.237-2.236-2.237s-2.237 1.001-2.237 2.237c0 1.235 1.002 2.237 2.237 2.237z"/><path d="m456.719 292.352c1.235 0 2.236-1.001 2.236-2.237 0-1.235-1.001-2.237-2.236-2.237s-2.237 1.002-2.237 2.237c0 1.236 1.002 2.237 2.237 2.237z"/><path d="m456.719 289.557c1.235 0 2.236-1.001 2.236-2.237 0-1.235-1.001-2.237-2.236-2.237s-2.237 1.002-2.237 2.237c0 1.236 1.002 2.237 2.237 2.237z"/></g><path d="m465.989 280.109c-.555.081-1.113.14-1.674.176.519-.453 1-.947 1.44-1.476-.31-.94-.765-1.826-1.35-2.625-.555.312-1.167.507-1.8.572-.553.081-1.111.14-1.669.176.751-.713 1.464-1.464 2.137-2.251-1.613-1.462-3.68-2.326-5.853-2.446-2.174-.12-4.323.511-6.087 1.787-1.764 1.277-3.036 3.121-3.603 5.223-.567 2.103-.394 4.336.489 6.327.883 1.99 2.424 3.616 4.363 4.606s4.16 1.283 6.289.83c2.13-.453 4.039-1.624 5.408-3.317 1.369-1.694 2.115-3.806 2.112-5.984.001-.548-.048-1.094-.143-1.634z" fill="#67d5d2"/><path d="m473.458 291.223c-.571.35-1.214.566-1.881.63-.553.081-1.111.139-1.669.175.593-.532 1.146-1.107 1.656-1.719-.468-.123-.948-.186-1.431-.189-1.331-.003-2.62.469-3.634 1.331s-1.689 2.057-1.902 3.371c-.214 1.314.048 2.661.738 3.799.69 1.139 1.762 1.994 3.026 2.413 1.263.419 2.634.374 3.867-.127s2.248-1.425 2.861-2.606c.614-1.181.787-2.542.488-3.84-.299-1.297-1.05-2.445-2.119-3.238z" fill="#67d5d2"/><path d="m453.362 301.859c1.236 0 2.237-1.002 2.237-2.237 0-1.236-1.001-2.237-2.237-2.237-1.235 0-2.236 1.001-2.236 2.237 0 1.235 1.001 2.237 2.236 2.237z" fill="#3f3d56"/><path d="m451.125 300.742c1.235 0 2.237-1.001 2.237-2.237 0-1.235-1.002-2.237-2.237-2.237s-2.236 1.002-2.236 2.237c0 1.236 1.001 2.237 2.236 2.237z" fill="#3f3d56"/><path d="m448.894 299.622c1.235 0 2.236-1.002 2.236-2.237 0-1.236-1.001-2.238-2.236-2.238s-2.237 1.002-2.237 2.238c0 1.235 1.002 2.237 2.237 2.237z" fill="#3f3d56"/><path d="m439.992 291.223c.571.35 1.215.566 1.881.63.554.081 1.112.139 1.67.175-.593-.532-1.147-1.107-1.656-1.719.467-.123.948-.186 1.431-.189 1.331-.003 2.619.469 3.633 1.331 1.015.862 1.689 2.057 1.903 3.371.213 1.314-.049 2.661-.739 3.799-.689 1.139-1.762 1.994-3.025 2.413s-2.635.374-3.868-.127-2.247-1.425-2.861-2.606-.786-2.542-.487-3.84c.299-1.297 1.05-2.445 2.118-3.238z" fill="#67d5d2"/><path d="m455.108 313.044h5.449c2.984 0 5.845 1.185 7.955 3.296 2.11 2.11 3.295 4.972 3.295 7.957v14.795c0 .506-.201.991-.559 1.349s-.843.559-1.349.559h-24.133c-.506 0-.991-.201-1.349-.559s-.559-.843-.559-1.349v-14.795c0-2.985 1.186-5.847 3.295-7.957 2.11-2.111 4.971-3.296 7.955-3.296z" fill="#3f3d56"/><g fill="#000" opacity=".1"><path d="m466.16 280.722c-.226.244-.468.472-.724.684.256 0 .513-.041.765-.068-.009-.207-.018-.414-.041-.616z" opacity=".1"/><path d="m462.083 278.048c.558-.036 1.116-.095 1.67-.176.501-.061.99-.194 1.453-.396-.229-.449-.49-.881-.783-1.292-.28.171-.583.3-.9.383-.441.53-.922 1.025-1.44 1.481z" opacity=".1"/><path d="m448.331 282.851c-.003-1.707.454-3.383 1.323-4.851.869-1.469 2.117-2.676 3.614-3.494 1.497-.819 3.187-1.218 4.892-1.156s3.362.582 4.796 1.507l.144-.153c-.936-.833-2.027-1.473-3.211-1.882s-2.438-.58-3.688-.502c-1.25.077-2.473.402-3.597.954-1.125.552-2.129 1.322-2.955 2.264-.825.942-1.457 2.038-1.857 3.226-.4 1.187-.562 2.442-.475 3.692.086 1.25.419 2.47.98 3.591.56 1.121 1.336 2.119 2.284 2.939-1.455-1.713-2.253-3.888-2.25-6.135z" opacity=".1"/></g><g fill="#000" opacity=".1"><path d="m469.907 293.149c.558-.04 1.116-.099 1.67-.18.666-.063 1.309-.277 1.881-.626.632.465 1.16 1.058 1.547 1.741.388.682.627 1.439.702 2.22.022-.197.033-.395.032-.594.004-.874-.198-1.737-.589-2.519-.39-.781-.96-1.461-1.661-1.982-.571.351-1.214.566-1.881.63l-.45.054c-.383.452-.801.872-1.251 1.256z" opacity=".1"/><path d="m470.142 291.236c.189 0 .373 0 .558.041.292-.311.58-.644.873-.968-.468-.123-.948-.186-1.431-.189-1.483 0-2.904.589-3.952 1.637-1.048 1.049-1.637 2.47-1.637 3.953 0 .189 0 .378.027.558.139-1.379.785-2.657 1.813-3.586 1.027-.93 2.363-1.445 3.749-1.446z" opacity=".1"/></g><g fill="#000" opacity=".1"><path d="m443.525 293.149c-.558-.04-1.116-.099-1.669-.18-.667-.063-1.31-.277-1.881-.626-.633.465-1.16 1.058-1.548 1.741-.388.682-.627 1.439-.702 2.22-.022-.197-.032-.395-.032-.594-.003-.874.198-1.737.589-2.519.391-.781.96-1.461 1.661-1.982.571.351 1.215.566 1.881.63l.45.054c.384.451.802.87 1.251 1.256z" opacity=".1"/><path d="m443.3 291.236c-.189 0-.373 0-.558.041-.292-.311-.58-.644-.873-.968.467-.123.948-.186 1.431-.189 1.482 0 2.904.589 3.952 1.637 1.048 1.049 1.637 2.47 1.637 3.953 0 .189 0 .378-.027.558-.139-1.379-.785-2.657-1.813-3.586-1.028-.93-2.363-1.445-3.749-1.446z" opacity=".1"/></g><path d="m25.649 269.608h42.9913c2.9836 0 5.845 1.186 7.9547 3.296s3.2949 4.973 3.2949 7.957v54.234h-65.4905v-54.234c0-2.984 1.1852-5.847 3.2949-7.957s4.9711-3.296 7.9547-3.296z" fill="#3f3d56"/><path d="m25.649 269.608h42.9913c2.9836 0 5.845 1.186 7.9547 3.296s3.2949 4.973 3.2949 7.957v54.234h-65.4905v-54.234c0-2.984 1.1852-5.847 3.2949-7.957s4.9711-3.296 7.9547-3.296z" fill="#000" opacity=".1"/><path d="m44.5347 283.998c2.8927 0 5.2378-2.345 5.2378-5.239s-2.3451-5.239-5.2378-5.239c-2.8928 0-5.2378 2.345-5.2378 5.239s2.345 5.239 5.2378 5.239z" fill="#3f3d56"/><path d="m44.5347 277.449c2.8927 0 5.2378-2.345 5.2378-5.239s-2.3451-5.239-5.2378-5.239c-2.8928 0-5.2378 2.345-5.2378 5.239s2.345 5.239 5.2378 5.239z" fill="#3f3d56"/><path d="m44.5347 270.896c2.8927 0 5.2378-2.346 5.2378-5.24 0-2.893-2.3451-5.239-5.2378-5.239-2.8928 0-5.2378 2.346-5.2378 5.239 0 2.894 2.345 5.24 5.2378 5.24z" fill="#3f3d56"/><path d="m44.5347 264.347c2.8927 0 5.2378-2.346 5.2378-5.24 0-2.893-2.3451-5.239-5.2378-5.239-2.8928 0-5.2378 2.346-5.2378 5.239 0 2.894 2.345 5.24 5.2378 5.24z" fill="#3f3d56"/><path d="m44.5347 257.793c2.8927 0 5.2378-2.346 5.2378-5.239 0-2.894-2.3451-5.239-5.2378-5.239-2.8928 0-5.2378 2.345-5.2378 5.239 0 2.893 2.345 5.239 5.2378 5.239z" fill="#3f3d56"/><path d="m44.5347 251.244c2.8927 0 5.2378-2.346 5.2378-5.239 0-2.894-2.3451-5.24-5.2378-5.24-2.8928 0-5.2378 2.346-5.2378 5.24 0 2.893 2.345 5.239 5.2378 5.239z" fill="#3f3d56"/><path d="m44.5347 244.695c2.8927 0 5.2378-2.346 5.2378-5.239 0-2.894-2.3451-5.24-5.2378-5.24-2.8928 0-5.2378 2.346-5.2378 5.24 0 2.893 2.345 5.239 5.2378 5.239z" fill="#3f3d56"/><path d="m52.3911 247.314c2.8928 0 5.2378-2.345 5.2378-5.239 0-2.893-2.345-5.239-5.2378-5.239-2.8927 0-5.2378 2.346-5.2378 5.239 0 2.894 2.3451 5.239 5.2378 5.239z" fill="#3f3d56"/><path d="m57.6294 244.695c2.8928 0 5.2378-2.346 5.2378-5.239 0-2.894-2.345-5.24-5.2378-5.24s-5.2378 2.346-5.2378 5.24c0 2.893 2.345 5.239 5.2378 5.239z" fill="#3f3d56"/><path d="m62.8716 242.071c2.8927 0 5.2378-2.346 5.2378-5.24 0-2.893-2.3451-5.239-5.2378-5.239-2.8928 0-5.2378 2.346-5.2378 5.239 0 2.894 2.345 5.24 5.2378 5.24z" fill="#3f3d56"/><path d="m44.5347 238.141c2.8927 0 5.2378-2.345 5.2378-5.239s-2.3451-5.239-5.2378-5.239c-2.8928 0-5.2378 2.345-5.2378 5.239s2.345 5.239 5.2378 5.239z" fill="#3f3d56"/><path d="m44.5347 231.592c2.8927 0 5.2378-2.346 5.2378-5.239 0-2.894-2.3451-5.239-5.2378-5.239-2.8928 0-5.2378 2.345-5.2378 5.239 0 2.893 2.345 5.239 5.2378 5.239z" fill="#3f3d56"/><path d="m44.5347 225.039c2.8927 0 5.2378-2.346 5.2378-5.24 0-2.893-2.3451-5.239-5.2378-5.239-2.8928 0-5.2378 2.346-5.2378 5.239 0 2.894 2.345 5.24 5.2378 5.24z" fill="#3f3d56"/><path d="m44.5347 218.489c2.8927 0 5.2378-2.345 5.2378-5.239 0-2.893-2.3451-5.239-5.2378-5.239-2.8928 0-5.2378 2.346-5.2378 5.239 0 2.894 2.345 5.239 5.2378 5.239z" fill="#3f3d56"/><path d="m66.2556 196.349c-1.2989.189-2.6039.327-3.9148.414 1.2132-1.063 2.3402-2.22 3.3704-3.461-.7146-2.2-1.7683-4.275-3.1229-6.149-1.289.737-2.7173 1.197-4.1939 1.35-1.2959.189-2.6054.329-3.9148.419 1.7234-1.395 3.3209-3.506 5.0083-5.221-3.912-3.554-8.958-5.604-14.2395-5.785-5.2815-.18-10.4557 1.52-14.6013 4.798-4.1457 3.278-6.9937 7.922-8.037 13.104s-.2141 10.566 2.3398 15.194c2.554 4.627 6.667 8.198 11.6067 10.076 4.9397 1.879 10.3855 1.942 15.3678.18s9.1777-5.236 11.8392-9.802c2.6615-4.567 3.6163-9.93 2.6945-15.135z" fill="#f65282"/><path d="m83.7602 222.392c-1.2329.869-2.8709 1.242-4.4053 1.467-1.3005.194-2.6054.329-3.9149.419 1.35-1.085 2.5919-2.597 3.8789-4.024-3.153-.837-6.5048-.468-9.4003 1.035-2.8954 1.503-5.1266 4.032-6.2573 7.093-1.1308 3.061-1.0799 6.433.1426 9.459 1.2226 3.025 3.529 5.486 6.4684 6.901 2.9395 1.415 6.3009 1.682 9.4272.751 3.1264-.932 5.7931-2.996 7.479-5.79 1.6859-2.793 2.2698-6.115 1.6377-9.317-.6321-3.201-2.4349-6.051-5.056-7.994z" fill="#f65282"/><path d="m36.6733 247.314c2.8928 0 5.2378-2.345 5.2378-5.239 0-2.893-2.345-5.239-5.2378-5.239-2.8927 0-5.2378 2.346-5.2378 5.239 0 2.894 2.3451 5.239 5.2378 5.239z" fill="#3f3d56"/><path d="m31.436 244.695c2.8928 0 5.2378-2.346 5.2378-5.239 0-2.894-2.345-5.24-5.2378-5.24-2.8927 0-5.2378 2.346-5.2378 5.24 0 2.893 2.3451 5.239 5.2378 5.239z" fill="#3f3d56"/><path d="m26.1978 242.071c2.8927 0 5.2378-2.346 5.2378-5.24 0-2.893-2.3451-5.239-5.2378-5.239-2.8928 0-5.2378 2.346-5.2378 5.239 0 2.894 2.345 5.24 5.2378 5.24z" fill="#3f3d56"/><path d="m5.3103 222.392c1.23295.869 2.87089 1.242 4.40983 1.467 1.29597.194 2.60087.329 3.91037.419-1.35-1.085-2.5919-2.597-3.87887-4.024 3.15307-.837 6.50477-.468 9.40027 1.035s5.1266 4.032 6.2573 7.093c1.1308 3.061 1.0799 6.433-.1426 9.459-1.2226 3.025-3.5289 5.486-6.4684 6.901s-6.3009 1.682-9.42721.751c-3.12636-.932-5.79304-2.996-7.47894-5.79-1.685889-2.793-2.269833-6.115-1.637715-9.317.632117-3.201 2.434865-6.051 5.055965-7.994z" fill="#f65282"/><path d="m25.649 273.52h42.9913c2.9836 0 5.845 1.185 7.9547 3.296 2.1097 2.11 3.2949 4.972 3.2949 7.956v52.353c0 .506-.201.991-.5588 1.349s-.8431.559-1.3491.559h-61.6657c-.2513.001-.5003-.047-.7329-.143-.2325-.095-.4439-.235-.622-.413-.1781-.177-.3195-.388-.4159-.62s-.1461-.481-.1461-.732v-52.353c0-2.984 1.1852-5.846 3.2949-7.956 2.1097-2.111 4.9711-3.296 7.9547-3.296z" fill="#3f3d56"/><g fill="#000" opacity=".1"><path d="m66.6509 197.78c-.5265.572-1.0918 1.108-1.6919 1.602.5985-.04 1.2014-.094 1.7999-.153-.0225-.486-.054-.972-.108-1.449z" opacity=".1"/><path d="m57.1025 191.524c1.3095-.09 2.6144-.225 3.9104-.419 1.1738-.137 2.3223-.44 3.4108-.9-.5321-1.058-1.1459-2.072-1.8359-3.034-.6506.402-1.3573.706-2.0969.9-1.0383 1.237-2.1711 2.391-3.3884 3.453z" opacity=".1"/><path d="m24.8835 202.772c-.0079-3.999 1.0624-7.925 3.0982-11.366s4.9617-6.269 8.4695-8.187c3.5078-1.917 7.4676-2.852 11.4623-2.707 3.9947.144 7.8764 1.364 11.2362 3.531.1124-.117.2249-.248.3374-.36-2.1887-1.978-4.7488-3.501-7.5312-4.48-2.7825-.979-5.7319-1.395-8.6766-1.223-2.9446.171-5.8257.927-8.4757 2.222-2.65 1.296-5.016 3.106-6.9603 5.325-1.9442 2.219-3.428 4.802-4.3649 7.6-.937 2.797-1.3084 5.753-1.0926 8.696.2157 2.942 1.0143 5.813 2.3492 8.444 1.335 2.631 3.1797 4.97 5.4268 6.881-3.4125-4.012-5.2838-9.109-5.2783-14.376z" opacity=".1"/></g><g fill="#000" opacity=".1"><path d="m75.4395 226.898c1.3079-.084 2.6128-.224 3.9148-.419 1.5344-.221 3.1499-.594 4.4053-1.467 1.4766 1.091 2.7069 2.481 3.6109 4.079s1.4614 3.369 1.6359 5.197c.045-.45.072-.9.072-1.381.0013-2.046-.4781-4.064-1.3997-5.89-.9215-1.827-2.2594-3.411-3.9056-4.625-1.2329.869-2.8709 1.242-4.4053 1.467-.3465.05-.6885.09-1.0305.131-.8876 1.044-1.8566 2.016-2.8978 2.908z" opacity=".1"/><path d="m75.9569 222.423c.4392.008.8778.038 1.3139.09.684-.729 1.35-1.503 2.0385-2.25-1.9384-.523-3.9712-.591-5.9402-.2-1.9691.391-3.8214 1.232-5.4128 2.456-1.5913 1.224-2.8788 2.799-3.7623 4.602-.8835 1.804-1.3392 3.786-1.3316 5.795 0 .45.0225.9.063 1.309.3225-3.233 1.8346-6.231 4.2427-8.412 2.408-2.181 5.5403-3.389 8.7888-3.39z" opacity=".1"/></g><g fill="#000" opacity=".1"><path d="m13.6255 226.898c-1.308-.084-2.6114-.224-3.91037-.419-1.53894-.221-3.17688-.594-4.40983-1.467-1.47408 1.092-2.70183 2.483-3.60345 4.081-.901623 1.598-1.456937 3.368-1.6298518 5.195-.0449983-.45-.0719972-.9-.0719972-1.381-.0007997-2.047.479352-4.065 1.401699-5.891.92235-1.826 2.26107-3.41 3.9081-4.624 1.23295.869 2.87089 1.242 4.40983 1.467.34197.05.68397.09 1.02597.131.883 1.042 1.8459 2.015 2.8799 2.908z" opacity=".1"/><path d="m13.0985 222.423c-.4393.008-.8779.038-1.314.09-.684-.729-1.3499-1.503-2.03841-2.25 1.93831-.523 3.97111-.591 5.94021-.2s3.8214 1.232 5.4127 2.456c1.5914 1.224 2.8789 2.799 3.7624 4.602.8835 1.804 1.3392 3.786 1.3316 5.795 0 .45 0 .9-.063 1.309-.3225-3.233-1.8346-6.231-4.2427-8.412s-5.5404-3.389-8.7888-3.39z" opacity=".1"/></g><path d="m305.979 340.338-87.747-1.125.257-2.25 4.243-37.134h77.06l5.67 37.134.432 2.813z" fill="#d0d2d5"/><path d="m305.894 339.776h-43.788l-43.874-.563.257-2.25h86.973z" fill="#000" opacity=".1"/><path d="m320.041 337.525h-116.433v2.813h116.433z" fill="#d0d2d5"/><path d="m431.129 76.791c.009-1.9427-.753-3.8097-2.119-5.1905-1.366-1.3809-3.224-2.1626-5.167-2.1733h-325.1616c-.962.0047-1.9137.1989-2.8007.5715-.887.3727-1.6919.9164-2.3688 1.6002-.677.6838-1.2126 1.4942-1.5764 2.3851-.3638.8908-.5485 1.8447-.5438 2.807v197.147h339.7373z" fill="#444053"/><path d="m91.3916 271.976v23.095c-.0029.959.1835 1.91.5485 2.797.3651.887.9017 1.693 1.5789 2.372.6773.679 1.482 1.218 2.3678 1.585.8859.368 1.8356.556 2.7946.556h325.1616c1.933 0 3.786-.768 5.152-2.135 1.366-1.366 2.134-3.22 2.134-5.153v-23.117z" fill="#d0d2d5"/><path d="m418.754 81.8052h-313.301v177.2298h313.301z" fill="#6c63ff" opacity=".1"/><path d="m262.948 293.599c1.15.001 2.286-.26 3.321-.762s1.943-1.233 2.655-2.137c.214-.276.411-.566.589-.868l-4.167-.685 4.5.032c.434-.94.671-1.959.695-2.994.025-1.035-.163-2.064-.551-3.024l-6.043 3.151 5.575-4.096c-.512-.919-1.209-1.721-2.046-2.356-.838-.635-1.799-1.089-2.821-1.333-1.023-.245-2.085-.274-3.119-.086-1.035.188-2.019.588-2.89 1.176-.872.588-1.612 1.351-2.173 2.24s-.932 1.885-1.089 2.925c-.156 1.04-.095 2.101.18 3.115.275 1.015.757 1.962 1.417 2.781.708.907 1.613 1.642 2.647 2.148s2.169.77 3.32.773z" fill="#6c63ff"/><path d="m270.543 302.358 35.004 35.167-5.368-35.167z" fill="#000" opacity=".1"/><path d="m356.039 105.94h-241.865v128.465h241.865z" fill="#fff"/><g fill="#6c63ff"><path d="m195.126 139.428h-67.461v3.497h67.461z" opacity=".1"/><path d="m140.161 120.933h-6.498v18.495h6.498z" opacity=".1"/><path d="m149.655 120.933h-6.498v18.495h6.498z" opacity=".1"/><path d="m159.15 120.933h-6.498v18.495h6.498z" opacity=".1"/><path d="m168.644 120.933h-6.498v18.495h6.498z" opacity=".1"/><path d="m178.139 120.933h-6.497v18.495h6.497z" opacity=".1"/><path d="m187.633 120.933h-6.497v18.495h6.497z" opacity=".1"/><path d="m140.161 124.435h-6.498v1.998h6.498z" opacity=".1"/><path d="m149.655 124.435h-6.498v1.998h6.498z" opacity=".1"/><path d="m159.15 124.435h-6.498v1.998h6.498z" opacity=".1"/><path d="m168.644 124.435h-6.498v1.998h6.498z" opacity=".1"/><path d="m178.139 124.435h-6.497v1.998h6.497z" opacity=".1"/><path d="m187.633 124.435h-6.497v1.998h6.497z" opacity=".1"/><path d="m140.161 133.433h-6.498v1.998h6.498z" opacity=".1"/><path d="m149.655 133.433h-6.498v1.998h6.498z" opacity=".1"/><path d="m159.15 133.433h-6.498v1.998h6.498z" opacity=".1"/><path d="m168.644 133.433h-6.498v1.998h6.498z" opacity=".1"/><path d="m178.139 133.433h-6.497v1.998h6.497z" opacity=".1"/><path d="m187.633 133.433h-6.497v1.998h6.497z" opacity=".1"/><path d="m343.044 148.426h-67.461v3.497h67.461z" opacity=".1"/><path d="m288.079 129.931h-6.498v18.495h6.498z" opacity=".1"/><path d="m297.574 129.931h-6.498v18.495h6.498z" opacity=".1"/><path d="m307.068 129.931h-6.498v18.495h6.498z" opacity=".1"/><path d="m316.563 129.931h-6.498v18.495h6.498z" opacity=".1"/><path d="m326.057 129.931h-6.497v18.495h6.497z" opacity=".1"/><path d="m335.552 129.931h-6.497v18.495h6.497z" opacity=".1"/><path d="m288.079 133.433h-6.498v1.998h6.498z" opacity=".1"/><path d="m297.574 133.433h-6.498v1.998h6.498z" opacity=".1"/><path d="m307.068 133.433h-6.498v1.998h6.498z" opacity=".1"/><path d="m316.563 133.433h-6.498v1.998h6.498z" opacity=".1"/><path d="m326.057 133.433h-6.497v1.998h6.497z" opacity=".1"/><path d="m335.552 133.433h-6.497v1.998h6.497z" opacity=".1"/><path d="m288.079 142.43h-6.498v1.999h6.498z" opacity=".1"/><path d="m297.574 142.43h-6.498v1.999h6.498z" opacity=".1"/><path d="m307.068 142.43h-6.498v1.999h6.498z" opacity=".1"/><path d="m316.563 142.43h-6.498v1.999h6.498z" opacity=".1"/><path d="m326.057 142.43h-6.497v1.999h6.497z" opacity=".1"/><path d="m335.552 142.43h-6.497v1.999h6.497z" opacity=".1"/><path d="m343.044 173.92h-67.461v3.497h67.461z" opacity=".1"/><path d="m288.079 155.425h-6.498v18.495h6.498z" opacity=".1"/><path d="m297.574 155.425h-6.498v18.495h6.498z" opacity=".1"/><path d="m307.068 155.425h-6.498v18.495h6.498z" opacity=".1"/><path d="m316.563 155.425h-6.498v18.495h6.498z" opacity=".1"/><path d="m326.057 155.425h-6.497v18.495h6.497z" opacity=".1"/><path d="m335.552 155.425h-6.497v18.495h6.497z" opacity=".1"/><path d="m288.079 158.922h-6.498v1.999h6.498z" opacity=".1"/><path d="m297.574 158.922h-6.498v1.999h6.498z" opacity=".1"/><path d="m307.068 158.922h-6.498v1.999h6.498z" opacity=".1"/><path d="m316.563 158.922h-6.498v1.999h6.498z" opacity=".1"/><path d="m326.057 158.922h-6.497v1.999h6.497z" opacity=".1"/><path d="m335.552 158.922h-6.497v1.999h6.497z" opacity=".1"/><path d="m288.079 167.92h-6.498v1.998h6.498z" opacity=".1"/><path d="m297.574 167.92h-6.498v1.998h6.498z" opacity=".1"/><path d="m307.068 167.92h-6.498v1.998h6.498z" opacity=".1"/><path d="m316.563 167.92h-6.498v1.998h6.498z" opacity=".1"/><path d="m326.057 167.92h-6.497v1.998h6.497z" opacity=".1"/><path d="m335.552 167.92h-6.497v1.998h6.497z" opacity=".1"/><path d="m169.04 178.984c-.505-.643-.965-1.32-1.377-2.026l9.716-1.593-10.526.085c-1.007-2.193-1.556-4.569-1.614-6.982s.376-4.813 1.277-7.052l14.093 7.314-12.995-9.556c1.214-2.109 2.85-3.946 4.806-5.395 1.955-1.449 4.189-2.479 6.56-3.027 2.371-.547 4.83-.599 7.223-.153 2.392.446 4.667 1.38 6.682 2.745 2.016 1.364 3.728 3.13 5.031 5.186s2.168 4.359 2.541 6.765c.373 2.405.247 4.862-.372 7.216-.618 2.355-1.715 4.557-3.222 6.468.79.998 1.471 2.079 2.029 3.223l-12.599 6.549 13.441-4.501c.945 2.79 1.179 5.772.681 8.675-.499 2.903-1.713 5.637-3.534 7.952 2.055 2.612 3.333 5.75 3.689 9.055s-.225 6.644-1.677 9.634c-1.451 2.99-3.715 5.511-6.532 7.275s-6.073 2.7-9.396 2.7-6.579-.936-9.396-2.7-5.08-4.285-6.532-7.275-2.033-6.329-1.677-9.634 1.634-6.443 3.689-9.055c-2.454-3.122-3.788-6.978-3.788-10.949s1.334-7.827 3.788-10.949z" opacity=".1"/><path d="m200.66 189.935c.006 3.971-1.329 7.828-3.788 10.946 2.055 2.613 3.333 5.751 3.689 9.056s-.225 6.643-1.677 9.634c-1.452 2.99-3.715 5.511-6.532 7.275s-6.073 2.699-9.396 2.699-6.579-.935-9.396-2.699-5.081-4.285-6.532-7.275c-1.452-2.991-2.033-6.329-1.677-9.634s1.634-6.443 3.689-9.056c-2.371-3.011 31.62-12.936 31.62-10.946z" opacity=".1"/></g><path d="m185.798 234.257c.031.049.054.099.085.148h-6.012c.032-.049.054-.099.086-.148-.516-.901-.783-1.923-.774-2.962-.001-.71.122-1.416.364-2.084.333.054.747.113 1.224.162 1.395.14 2.8.14 4.194 0 .396-.04.815-.099 1.238-.162v.032c.237.658.357 1.352.355 2.052.014 1.037-.249 2.059-.76 2.962z" fill="#3f3d56" opacity=".2"/><path d="m164.194 234.414h-33.433c-.077-.193-.144-.396-.203-.594-1.179-3.792-1.041-7.872.392-11.577-3.268-2.257-5.681-5.548-6.853-9.343s-1.035-7.875.391-11.582c-.673-.467-1.313-.978-1.917-1.53l8.811-4.393-10.012 3.177c-1.612-1.798-2.839-3.906-3.606-6.196-.768-2.289-1.06-4.712-.858-7.118l15.623 2.822-15.236-5.293c.538-2.374 1.56-4.612 3.002-6.573s3.272-3.604 5.377-4.826 4.44-1.997 6.857-2.276c2.418-.279 4.867-.057 7.195.653s4.485 1.892 6.335 3.473c1.851 1.581 3.356 3.527 4.422 5.716 1.065 2.188 1.668 4.573 1.77 7.006.103 2.432-.297 4.859-1.174 7.13 1.047.726 2.014 1.56 2.885 2.489l-10.116 9.983 11.515-8.282c1.726 2.389 2.829 5.17 3.209 8.092.381 2.922.026 5.893-1.031 8.643 3.187 2.204 5.564 5.393 6.766 9.077 1.202 3.685 1.163 7.662-.111 11.322z" fill="#6c63ff" opacity=".1"/><path d="m164.194 234.414h-33.433c-.077-.193-.144-.396-.203-.594-1.179-3.792-1.041-7.872.392-11.577-3.15-2.183 26.396-21.699 26.999-19.804 1.174 3.794 1.036 7.874-.392 11.581 3.183 2.206 5.556 5.395 6.755 9.078 1.198 3.684 1.157 7.659-.118 11.316z" fill="#6c63ff" opacity=".1"/><path d="m315.591 210.419c-2.031 3.413-5.155 6.039-8.865 7.454.159 1.265.184 2.542.077 3.812l-14.184-.85 13.851 3.029c-.916 4.233-3.347 7.985-6.835 10.55h-19.305v.5h-19.65c.04-.171.081-.338.126-.5.722-2.715 2.077-5.22 3.954-7.31 1.878-2.09 4.223-3.704 6.845-4.712-.502-3.941.334-7.936 2.374-11.345 2.04-3.408 5.166-6.033 8.876-7.452-.106-.81-.156-1.626-.149-2.444l9.157 3.601-9.053-5.32c.258-2.398 1.003-4.717 2.187-6.817 1.185-2.101 2.784-3.938 4.702-5.399l8.343 13.503-6.251-14.853c3.406-1.895 7.34-2.613 11.195-2.042 3.854.57 7.413 2.396 10.124 5.195s4.423 6.415 4.871 10.286c.448 3.872-.394 7.783-2.394 11.128z" fill="#6c63ff" opacity=".1"/><path d="m304.355 229.216c-1.205 2.034-2.811 3.803-4.72 5.198h-19.305v.5h-19.65c.04-.171.081-.338.126-.5.722-2.715 2.077-5.22 3.954-7.31 1.878-2.09 4.223-3.704 6.845-4.712-.166-1.292 3.65-1.116 8.73-.261 9.931 1.665 24.695 5.955 24.02 7.085z" fill="#6c63ff" opacity=".1"/><path d="m220.694 181.959s2.407 13.129-2.992 17.41c-5.4 4.28 4.563 29.968 21.113 26.975s23.255-24.549 23.255-24.549-16.55-3.421-10.417-20.831z" fill="#efb7b9"/><path d="m220.694 181.959s2.407 13.129-2.992 17.41c-5.4 4.28 4.563 29.968 21.113 26.975s23.255-24.549 23.255-24.549-16.55-3.421-10.417-20.831z" fill="#000" opacity=".1"/><path d="m235.318 191.591c15.128 0 27.391-12.266 27.391-27.398s-12.263-27.398-27.391-27.398c-15.127 0-27.39 12.266-27.39 27.398s12.263 27.398 27.39 27.398z" fill="#efb7b9"/><path d="m280.33 216.28v18.625h-90.446v-17.775c.001-2.254.665-4.459 1.91-6.338 1.245-1.88 3.016-3.351 5.092-4.23l2.596-1.103c6.561-2.795 14.53-6.266 17.135-7.71.286-.143.554-.316.801-.518 1.427-1.427 1.143.428 1.143.428s-.04.351-.067.963c-.153 4.19.45 20.673 19.754 19.3 18.836-1.35 19.664-14.061 19.493-17.801-.011-.347-.041-.692-.09-1.036 0-.099 1.62.451 3.816 1.243 3.946 1.454 9.747 3.794 11.308 4.897.486.337 1.076.698 1.715 1.053 1.778.993 3.259 2.444 4.287 4.203 1.029 1.759 1.568 3.761 1.562 5.799z" fill="#6c63ff"/><path d="m261.462 200.328c-1.593 7.39-6.597 21.236-24.646 21.605-19.218.378-20.325-18.743-20.208-24.166.287-.143.558-.318.805-.523 1.427-1.426 1.143.428 1.143.428s-2.425 21.835 19.687 20.255 19.403-18.837 19.403-18.837c0-.104 1.62.427 3.816 1.238z" fill="#000" opacity=".1"/><path d="m202.897 165.548c1.8-.585 3.947.405 4.95 1.8 1.003 1.396 1.143 3.084 1.264 4.699 1.193.252 1.863-1.098 1.971-2.111.45-4.145.473-8.367 1.863-12.364 1.391-3.997 4.428-7.868 9.099-9.407 1.588-.552 3.286-.714 4.95-.473.985.167 1.917.509 2.902.671 3.407.562 7.119-1.054 10.318.072 2.003.706 3.294 2.34 4.212 3.979.409.879.963 1.684 1.638 2.381 1.35 1.215 3.492 1.535 5.436 1.917 1.944.383 4.077 1.04 4.909 2.543.752 1.351.198 2.926-.054 4.402-.385 2.327.006 4.715 1.112 6.797.36.684 1.089 1.458 1.948 1.238.391-.132.722-.401.932-.756 2.249-3.151 2.177-7.238 4.981-10.051.94-.941 2.151-1.679 3.064-2.638.692-.698 1.199-1.557 1.476-2.5s.316-1.94.113-2.901c-.504-2.165-2.25-3.97-3.632-5.852-1.816-2.411-3.138-5.156-3.892-8.079-.133-.339-.133-.715 0-1.053.264-.345.605-.624.994-.815.764-.507 1.317-1.274 1.554-2.159.238-.886.145-1.827-.262-2.648-.783-1.634-2.543-2.845-4.473-3.574s-4.05-1.04-6.147-1.35c-1.377.202-2.992-.585-3.42-1.688-.189-.491-.189-1.022-.382-1.513-.374-.94-1.449-1.606-2.605-1.836-1.177-.193-2.382-.108-3.519.248-1.296.364-2.799.9-3.929.279-.594-.338-.927-.95-1.566-1.225-1.296-.553-2.664.563-3.6 1.486-.908.961-2.019 1.707-3.253 2.183-1.3.45-2.902.45-4.023-.266-.9-.572-1.35-1.49-2.065-2.219-1.175-1.202-3.033-1.854-4.887-2.003-1.859-.098-3.722.106-5.517.603-3.426.83-6.698 2.198-9.697 4.051-1.498.941-2.934 2.039-3.717 3.457-.556 1.106-.843 2.327-.837 3.565-.139 3.875 1.148 7.962 4.5 10.676-2.043.856-2.736 2.949-3.213 4.808-.765 2.961-1.534 5.977-1.246 9.002.144 1.562.571 3.124.342 4.676-.108.752-.369 1.49-.306 2.251.083.422.291.809.597 1.111.305.303.695.507 1.117.586z" fill="#454b69"/><g fill="#000" opacity=".1"><path d="m269.584 151.676c-.296.641-.696 1.23-1.183 1.741-.9.959-2.124 1.697-3.064 2.643-2.804 2.808-2.745 6.909-4.982 10.051-.21.354-.54.621-.931.751-.86.221-1.589-.553-1.949-1.238-.437-.832-.765-1.717-.976-2.633-.048.228-.093.458-.135.689-.385 2.326.006 4.714 1.111 6.797.36.684 1.089 1.458 1.949 1.237.391-.132.722-.4.931-.756 2.25-3.151 2.178-7.238 4.982-10.051.94-.94 2.15-1.679 3.064-2.637.691-.699 1.198-1.558 1.476-2.501.277-.942.316-1.939.112-2.901-.096-.409-.231-.809-.405-1.192z" opacity=".1"/><path d="m263.469 132.24c-.39.188-.731.466-.994.81-.133.338-.133.715 0 1.053.259 1.021.592 2.021.994 2.993.773-.51 1.33-1.288 1.565-2.184s.131-1.848-.291-2.672c-.127-.268-.278-.524-.45-.765-.235.295-.512.553-.824.765z" opacity=".1"/><path d="m205.602 138.307c-2.321-1.919-3.851-4.628-4.298-7.607-.116.594-.182 1.196-.198 1.801-.144 2.86.611 5.693 2.16 8.102.471-1.026 1.302-1.843 2.336-2.296z" opacity=".1"/><path d="m256.364 158.828c.252-1.477.806-3.048.054-4.402-.832-1.504-2.961-2.165-4.909-2.543-1.948-.379-4.077-.703-5.436-1.918-.675-.697-1.229-1.501-1.638-2.381-.9-1.638-2.209-3.272-4.212-3.979-3.199-1.125-6.911.491-10.318-.072-.985-.162-1.917-.504-2.902-.671-1.662-.248-3.36-.093-4.95.45-4.671 1.54-7.708 5.402-9.099 9.408-1.39 4.006-1.421 8.219-1.862 12.364-.108 1.013-.779 2.363-1.971 2.111-.122-1.616-.27-3.304-1.265-4.699-.994-1.395-3.118-2.39-4.95-1.8-.554-.126-1.046-.445-1.386-.901.063.6.054 1.204-.027 1.801-.108.752-.369 1.49-.306 2.25.083.422.29.81.595 1.113.304.304.693.509 1.115.589 1.8-.585 3.947.405 4.95 1.8 1.004 1.396 1.143 3.083 1.265 4.699 1.192.252 1.863-1.098 1.971-2.111.45-4.145.472-8.367 1.862-12.364 1.391-3.997 4.428-7.868 9.099-9.407 1.589-.552 3.286-.714 4.95-.473.985.167 1.917.509 2.902.671 3.407.562 7.119-1.054 10.318.072 2.003.706 3.294 2.34 4.212 3.979.409.879.963 1.684 1.638 2.381 1.35 1.215 3.492 1.535 5.436 1.917 1.944.383 3.919.995 4.81 2.39.023-.076.036-.175.054-.274z" opacity=".1"/><path d="m201.502 156.784c.106-1.222.033-2.453-.216-3.655-.192 1.268-.234 2.553-.126 3.831.027.328.072.652.117.981.054-.387.153-.77.225-1.157z" opacity=".1"/></g><path d="m408.913 206.454h-40.499v28.109h40.499z" fill="#fff"/><path d="m405.304 227.663c-.578.972-1.468 1.719-2.524 2.12.045.36.053.723.022 1.084l-4.05-.243 3.942.865c-.263 1.202-.954 2.267-1.944 2.997h-5.481v.144h-5.588c0-.049 0-.094.036-.144.12-.457.304-.895.549-1.3.577-.971 1.465-1.718 2.52-2.12-.144-1.122.093-2.259.673-3.228.581-.97 1.47-1.717 2.526-2.12-.031-.229-.045-.461-.041-.693l2.606 1.026-2.579-1.512c.073-.684.285-1.345.623-1.943.339-.599.796-1.122 1.344-1.536l2.371 3.844-1.777-4.231c.968-.528 2.083-.723 3.173-.556s2.095.688 2.861 1.481 1.251 1.816 1.38 2.912c.13 1.095-.104 2.203-.664 3.153z" fill="#6c63ff" opacity=".1"/><path d="m402.105 233.024c-.345.578-.805 1.081-1.35 1.476h-5.486v.144h-5.588c0-.05 0-.095.036-.144.12-.458.304-.896.549-1.301.577-.97 1.465-1.717 2.52-2.12-.045-.365 1.039-.315 2.483-.072 2.826.477 7.029 1.697 6.836 2.017z" fill="#6c63ff" opacity=".1"/><path d="m369.954 227.663c.577.972 1.467 1.719 2.524 2.12-.046.36-.053.723-.022 1.084l4.049-.243-3.941.865c.263 1.202.953 2.267 1.943 2.997h5.495v.144h5.593c0-.049-.027-.094-.036-.144-.124-.456-.308-.893-.549-1.3-.58-.97-1.469-1.717-2.524-2.12.144-1.122-.094-2.259-.674-3.228-.58-.97-1.47-1.717-2.526-2.12.031-.23.046-.461.045-.693l-2.605 1.026 2.574-1.512c-.073-.684-.285-1.345-.623-1.943-.338-.599-.796-1.122-1.344-1.536l-2.371 3.844 1.777-4.231c-.968-.528-2.083-.723-3.173-.556s-2.095.688-2.861 1.481-1.251 1.816-1.38 2.912c-.129 1.095.104 2.203.665 3.153z" fill="#6c63ff" opacity=".1"/><path d="m373.153 233.024c.345.578.804 1.081 1.35 1.476h5.494v.144h5.593c0-.05-.027-.095-.036-.144-.123-.456-.308-.894-.549-1.301-.58-.97-1.469-1.716-2.524-2.12.045-.365-1.039-.315-2.484-.072-2.835.477-7.051 1.697-6.844 2.017z" fill="#6c63ff" opacity=".1"/><path d="m392.664 212.647h-9.049v10.083h9.049z" fill="#464353"/><path d="m392.664 212.647h-9.049v10.083h9.049z" fill="#000" opacity=".1"/><path d="m379.759 231.957-.185 2.619h2.583l.162-3.461z" fill="#a1616a"/><path d="m393.366 231.957-.391 2.619h2.366l.149-3.461z" fill="#a1616a"/><path d="m385.873 217.693s-.09 1.31-.405 1.652 2.813 3.371 5.274.378c0 0-1.057-.9-.81-1.909.248-1.008-4.059-.121-4.059-.121z" fill="#a1616a"/><path d="m385.873 217.693s-.09 1.31-.405 1.652 2.813 3.371 5.274.378c0 0-1.057-.9-.81-1.909.248-1.008-4.059-.121-4.059-.121z" fill="#000" opacity=".1"/><path d="m388.137 218.863c2.5 0 4.527-2.027 4.527-4.528s-2.027-4.528-4.527-4.528-4.527 2.027-4.527 4.528 2.027 4.528 4.527 4.528z" fill="#a1616a"/><path d="m387.904 220.502s-1.899-.032-2.183-1.765c-.376.325-.773.626-1.188.9-.184.063-1.998 1.09-2.34 1.153-.334.067-.645.223-.9.45-.447.351-.813.796-1.071 1.302-.259.507-.405 1.064-.427 1.632-.063 2.03-.311 5.996-.311 5.996l.095 1.436v.936s1.683.45 2.7-.45c0 0 0-.342.189-.45s.216-.563.184-.752c-.016-.28-.016-.561 0-.842.033.153.123.287.252.374.075.254.096.521.063.783-.094.185-.189.621-.094.716.047.083.067.18.056.276-.012.095-.053.185-.119.255-.172.24-.308.504-.405.783 0 0-.095.558-.189.621-.107.229-.18.471-.216.72h11.249c-.198-.57-.349-1.155-.45-1.75.032-.28-.279-1.436-.063-1.747.318-.412.494-.916.5-1.436l.126 1.216-.342 2.7s2.088.657 2.308.248c.234-.713.411-1.443.531-2.183 0 0 .5-2.251.626-2.561.126-.311.405-6.554-1.283-7.459-1.687-.904-4.869-2.462-4.95-2.385-.18.454-.513.832-.942 1.066s-.927.311-1.406.217z" fill="#6c63ff"/><path d="m382.481 226.605c-.321.46-.459 1.023-.387 1.58.076.551.256 1.083.531 1.566" opacity=".1" stroke="#000" stroke-miterlimit="10"/><path d="m393.411 227.033c.081.228.144.463.189.702.081.298.096.61.045.915-.052.304-.168.594-.342.849" opacity=".1" stroke="#000" stroke-miterlimit="10"/><path d="m386.112 211.238c.354-.094.73-.056 1.057.108.322.167.66.301 1.008.401.234.049.45.049.711.085.435.079.836.287 1.152.595.316.309.532.706.621 1.138.203 1.108-.45 2.197-.45 3.327.003.646.23 1.272.644 1.769.347.316.649.678.9 1.075.13.288.157.617.283.901.275.509.731.898 1.278 1.089.542.182 1.065.417 1.562.702.9.599 1.431 1.746 2.474 1.994.052.022.108.034.165.034.056 0 .112-.012.164-.034.047-.038.086-.086.112-.14.027-.055.041-.115.041-.175.026-.22.002-.444-.071-.653-.072-.21-.191-.401-.348-.558-.256-.256-.63-.45-.711-.797-.08-.346.135-.643.252-.958.374-1.022-.247-2.134-.953-2.962-.707-.828-1.553-1.647-1.724-2.701-.04-.355-.054-.713-.04-1.071-.013-.737-.141-1.467-.378-2.165-.114-.377-.298-.73-.54-1.04-.225-.27-.513-.477-.747-.738-.311-.429-.591-.881-.837-1.35-.358-.557-.846-1.017-1.423-1.341-.576-.324-1.224-.502-1.885-.518-1.264 0-2.461.558-3.532 1.229-.394.215-.735.514-.999.877-.45.716-.315 1.661-.576 2.471-.261.811-.877 1.409-1.093 2.201-.067.233-.078.478-.032.716.08.251.188.492.32.72.239.58.374 1.197.4 1.823.068.756.099 1.571-.297 2.215-.307.39-.69.714-1.125.954.441.358 1.004.531 1.571.482.855.036 1.844 0 2.375-.676.318-.484.446-1.069.36-1.642-.042-.627-.169-1.245-.378-1.837-.292-.833-.742-1.62-.873-2.493-.051-.315-.037-.637.04-.947.078-.31.217-.6.41-.854.162-.202.45-.306.585-.522.171-.288.122-.59.527-.734z" fill="#464353"/><g fill="#000" opacity=".1"><path d="m382.517 215.411c.239.579.374 1.196.4 1.823 0 .198.032.4.036.603.047-.44.047-.884 0-1.323-.027-.619-.163-1.229-.4-1.801-.13-.228-.237-.467-.32-.716-.066.232-.077.475-.031.712.08.244.185.479.315.702z" opacity=".1"/><path d="m385.482 219.561c-.531.67-1.521.711-2.376.679-.362.002-.722-.053-1.067-.162-.171.14-.355.27-.535.397.441.358 1.004.53 1.57.481.855.036 1.845 0 2.376-.675.305-.45.436-.995.369-1.535-.04.296-.156.577-.337.815z" opacity=".1"/><path d="m396.736 221.361c.013.052.031.101.054.149.054-.126.117-.257.166-.387.108-.297.139-.616.09-.928-.015.072-.034.143-.058.212-.117.315-.328.63-.252.954z" opacity=".1"/><path d="m390.688 213.781c.051-.308.051-.623 0-.931-.089-.433-.305-.83-.621-1.139s-.717-.516-1.152-.594c-.239-.041-.477-.041-.711-.086-.348-.102-.685-.236-1.008-.4-.327-.166-.703-.206-1.058-.113-.405.144-.355.45-.535.747-.131.216-.423.324-.585.522-.357.476-.518 1.071-.45 1.661.056-.344.2-.668.418-.94.162-.203.45-.306.585-.523.18-.301.131-.603.536-.747.354-.094.73-.056 1.057.108.322.167.66.301 1.008.401.234.049.45.049.711.085.435.079.836.287 1.152.595.316.309.532.706.621 1.138.015.072.026.144.032.216z" opacity=".1"/><path d="m397.694 223.688c-.105.042-.222.042-.328 0-1.044-.247-1.584-1.395-2.475-1.994-.498-.281-1.021-.516-1.561-.702-.547-.189-1.003-.576-1.278-1.085-.126-.292-.153-.616-.284-.9-.25-.397-.553-.759-.9-1.076-.375-.446-.601-.998-.648-1.579-.027.174-.04.35-.04.526.008.655.247 1.287.675 1.783.347.316.649.678.9 1.075.13.288.157.617.283.901.275.509.731.898 1.278 1.089.542.182 1.065.417 1.562.702.9.599 1.43 1.746 2.474 1.994.052.022.108.034.165.034.056 0 .112-.012.164-.034.047-.038.085-.086.112-.14.026-.055.04-.115.041-.175.02-.17.011-.342-.027-.509-.029.04-.068.071-.113.09z" opacity=".1"/></g><path d="m378.332 208.52h-5.787v8.268h5.787z" fill="#6c63ff" opacity=".1"/><path d="m377.504 209.703h-4.131v5.906h4.131z" fill="#6c63ff" opacity=".1"/><path d="m406.842 209.762h-9.503v4.96h9.503z" fill="#6c63ff" opacity=".1"/><path d="m405.605 210.41h-7.024v3.669h7.024z" fill="#6c63ff" opacity=".1"/></g></svg>